<svg width="60" height="76" viewBox="0 0 60 76" fill="none" xmlns="http://www.w3.org/2000/svg">
<path d="M52.5792 48.1909C56.5734 43.3791 58.9855 37.2505 59.0328 30.5695C59.1005 21.0502 54.3074 12.5673 46.9509 7.39648C43.9928 6.3739 40.8174 5.81242 37.513 5.80669C21.611 5.77916 8.71094 18.4292 8.71094 34.0387C8.71094 40.8659 11.1791 47.1265 15.286 52.0088H15.269L32.3904 73.5485C32.5008 73.4459 32.6054 73.3346 32.7023 73.2125L52.5816 48.1909H52.5792Z" fill="#8549BE"/>
<path d="M18.8696 62.9032C18.4863 62.9032 18.1132 62.7479 17.8432 62.478C17.5716 62.208 17.418 61.8332 17.418 61.4516C17.418 61.07 17.5716 60.6952 17.8432 60.4241C18.1132 60.1537 18.4863 60 18.8696 60C19.2512 60 19.626 60.1537 19.8959 60.4241C20.1658 60.6952 20.3212 61.0683 20.3212 61.4516C20.3212 61.8332 20.1658 62.208 19.8959 62.478C19.626 62.7479 19.2512 62.9032 18.8696 62.9032Z" fill="black"/>
<path d="M29.9999 75.4839C28.5957 75.4839 27.2951 74.8533 26.4314 73.7527L20.7322 66.4947C20.2282 65.8526 20.3435 64.926 20.9888 64.4249C21.6347 63.9245 22.5663 64.0379 23.0703 64.6801L28.7695 71.9387C29.0672 72.3176 29.5156 72.5353 29.9993 72.5353C30.4836 72.5353 30.932 72.3176 31.2298 71.9381L50.9053 46.867C50.9244 46.8405 50.9447 46.814 50.9656 46.7887C54.8915 42.0001 56.9898 36.1997 57.0332 30.0151C57.0836 22.8366 54.2931 16.0566 49.1761 10.9242C44.0602 5.79409 37.2673 2.96126 30.0492 2.94859C30.0329 2.94859 30.0161 2.94859 29.9999 2.94859C22.787 2.94859 16.0068 5.7365 10.9014 10.8032C5.78437 15.8809 2.96604 22.6356 2.96604 29.8234C2.96604 36.0569 5.16161 42.132 9.14839 46.9286C9.19937 46.9903 9.24514 47.0553 9.28453 47.1233L16.2825 56.0353C16.7865 56.6774 16.6718 57.6034 16.0259 58.1045C15.3806 58.6055 14.4485 58.4915 13.9445 57.8499L6.81901 48.775C6.78598 48.7329 6.75586 48.6897 6.72805 48.6448C2.3879 43.346 0 36.6708 0 29.8234C0 21.8472 3.12709 14.3513 8.80602 8.71619C14.4711 3.09429 21.9962 0 29.9993 0H30.0544C38.0679 0.0143974 45.607 3.15649 51.2824 8.84865C56.9596 14.542 60.0554 22.0666 59.9992 30.0359C59.9517 36.7785 57.5766 43.3667 53.3094 48.5976C53.3019 48.6074 53.2944 48.6172 53.2868 48.6269L33.5684 73.7522C32.7047 74.8527 31.4042 75.4839 29.9999 75.4839Z" fill="black"/>
<path d="M47.4197 30.0005C47.4197 39.6208 39.4041 47.4198 29.5165 47.4198C19.6289 47.4198 11.6133 39.6208 11.6133 30.0005C11.6133 20.3801 19.6289 12.5811 29.5165 12.5811C39.4041 12.5811 47.4197 20.3801 47.4197 30.0005Z" fill="white"/>
<path d="M42.1215 19.3544C41.7543 19.3544 41.3877 19.2135 41.1086 18.9327L41.0624 18.8859C40.5053 18.3288 40.5053 17.4257 41.0624 16.8686C41.6195 16.312 42.5226 16.312 43.0797 16.8686L43.1343 16.9237C43.6886 17.4831 43.6853 18.3861 43.1259 18.9405C42.8479 19.2162 42.4847 19.3544 42.1215 19.3544Z" fill="black"/>
<path d="M29.9961 49.3552C25.0383 49.3552 20.0806 47.4688 16.3062 43.695C8.75731 36.1473 8.75731 23.8661 16.3062 16.3184C22.154 10.4721 31.0717 8.98133 38.4979 12.6097C39.2367 12.971 39.5433 13.8626 39.182 14.6014C38.8207 15.3401 37.9289 15.6466 37.1901 15.2854C30.9071 12.2154 23.3605 13.477 18.4122 18.4246C12.025 24.8113 12.025 35.2027 18.4122 41.5888C21.6054 44.7816 25.8016 46.3782 29.9961 46.3788C34.1923 46.3794 38.3862 44.7827 41.5806 41.5888C46.6884 36.4818 47.8607 28.7608 44.4981 22.377C44.1147 21.6494 44.394 20.7484 45.1217 20.3651C45.8495 19.9817 46.7501 20.2615 47.1335 20.9892C49.0184 24.5676 49.738 28.7532 49.1591 32.776C48.5605 36.9378 46.6681 40.7134 43.6866 43.695C39.9121 47.4688 34.9538 49.3552 29.9961 49.3552Z" fill="black"/>
</svg>
