<svg width="75" height="68" viewBox="0 0 75 68" fill="none" xmlns="http://www.w3.org/2000/svg">
<path d="M74.0502 17.5419V59.3572C74.0502 62.7515 71.3005 65.5065 67.9121 65.5065H8.98581C5.5977 65.5065 2.84766 62.7518 2.84766 59.3572V17.5419C2.84766 14.1459 5.59602 11.3926 8.98581 11.3926H67.9121C71.3019 11.3926 74.0502 14.1459 74.0502 17.5419Z" fill="#8549BE"/>
<path d="M44.8066 37.9747L72.1515 64.6567C71.0126 65.768 69.4395 66.4557 67.7028 66.4557H7.29634C5.55966 66.4557 3.98657 65.768 2.84766 64.6567C2.84766 64.6567 22.3543 44.1705 30.1926 37.9747C38.0309 31.7789 34.2008 39.8734 34.2008 39.8734C36.2836 40.8604 38.7156 40.8604 40.7984 39.8734L44.8066 37.9747Z" fill="#8549BE"/>
<path d="M74.0502 17.7512V22C74.0502 23.8689 74.0502 23.5 74.0502 23.5C62.4157 28.9141 55.5 31.982 38 40C37.1974 40.4335 20.468 32.3917 19.6538 31.982L2.84766 23.5264V17.7512C2.84766 14.2395 5.59586 11.3926 8.98581 11.3926H67.9121C71.302 11.3926 74.0502 14.2393 74.0502 17.7512Z" fill="white"/>
<path d="M49 39.5587C44.4117 41.6684 46.2972 40.8015 40.9951 43.2389C38.7883 44.2537 36.2117 44.2537 34.005 43.2389C28.7038 40.802 30.5907 41.6695 26 39.5587L29.7583 36L34.005 37.9522C36.2117 38.9669 38.7883 38.9669 40.9951 37.9522L45.2417 36L49 39.5587Z" fill="#8549BE"/>
<path d="M74.9689 28.6791V59.1273C74.9689 63.6917 71.2705 67.4051 66.7249 67.4051H8.24393C3.69818 67.4051 0 63.6917 0 59.1273V17.898C0 13.3336 3.69818 9.62028 8.24393 9.62028H41.39C42.1635 9.62028 42.7905 10.2498 42.7905 11.0264C42.7905 11.8031 42.1635 12.4326 41.39 12.4326H8.24393C5.24253 12.4326 2.80083 14.8843 2.80083 17.898V22.0672L34.8349 37.6877C36.5186 38.5088 38.4501 38.5088 40.134 37.6877L53.0508 31.3893C53.7464 31.0499 54.5844 31.3411 54.9223 32.0398C55.2601 32.7384 54.97 33.5797 54.2743 33.9189L41.3575 40.2174C38.8964 41.4176 36.0728 41.4178 33.6114 40.2174L2.80083 25.1936V59.1273C2.80083 62.141 5.24253 64.5928 8.24393 64.5928H66.7249C69.7263 64.5928 72.1681 62.141 72.1681 59.1273V28.6791C72.1681 27.9025 72.795 27.273 73.5685 27.273C74.342 27.273 74.9689 27.9025 74.9689 28.6791ZM21.874 43.453L8.22588 57.157C7.34097 58.0455 7.97988 59.5575 9.21613 59.5575C9.57448 59.5575 9.93283 59.4201 10.2064 59.1456L23.8545 45.4416C24.4015 44.8924 24.4015 44.0021 23.8545 43.453C23.3076 42.9038 22.4208 42.9038 21.874 43.453ZM51.1145 43.453C50.5676 44.0021 50.5676 44.8924 51.1145 45.4416L64.7627 59.1456C65.036 59.4201 65.3946 59.5575 65.7529 59.5575C66.9888 59.5575 67.6282 58.0457 66.7432 57.157L53.095 43.453C52.5479 42.9038 51.6613 42.9038 51.1145 43.453ZM46.1938 14.4621C46.1938 6.48768 52.655 0 60.5969 0C68.5388 0 75 6.48768 75 14.4621C75 22.4366 68.5388 28.9243 60.5969 28.9243C52.655 28.9243 46.1938 22.4366 46.1938 14.4621ZM48.9946 14.4621C48.9946 20.8859 54.1993 26.112 60.5969 26.112C66.9945 26.112 72.1992 20.8859 72.1992 14.4621C72.1992 8.03835 66.9945 2.81231 60.5969 2.81231C54.1993 2.81231 48.9946 8.03835 48.9946 14.4621ZM57.7612 19.731C58.308 20.28 59.1946 20.2802 59.7417 19.731L68.0546 11.3841C68.6015 10.8349 68.6015 9.94463 68.0546 9.39545C67.5076 8.84627 66.621 8.84627 66.0741 9.39545L58.7514 16.7481L56.3066 14.2932C55.7597 13.7441 54.8732 13.7442 54.3261 14.2932C53.7792 14.8424 53.7794 15.7327 54.3261 16.2819L57.7612 19.731Z" fill="black"/>
</svg>
