<svg width="66" height="75" viewBox="0 0 66 75" fill="none" xmlns="http://www.w3.org/2000/svg">
<g clip-path="url(#clip0_246_4518)">
<path d="M17.2109 4.01465L21.0522 0.173369L22.9729 2.094L19.1316 5.93528L17.2109 4.01465Z" fill="#8549BE"/>
<path d="M6.16406 15.0566L10.0053 11.2154L11.926 13.136L8.0847 16.9773L6.16406 15.0566Z" fill="#8549BE"/>
<path d="M6.64453 2.08789L8.56517 0.167254L12.4064 4.00853L10.4858 5.92917L6.64453 2.08789Z" fill="#8549BE"/>
<path d="M14.5 60C21.4036 60 27 54.4036 27 47.5C27 40.5964 21.4036 35 14.5 35C7.59644 35 2 40.5964 2 47.5C2 54.4036 7.59644 60 14.5 60Z" fill="#8549BE"/>
<path d="M9 47.5C9 41.6833 12.832 36.8361 18 35.4417C17.0347 35.1806 16.0427 35 15 35C8.37333 35 3 40.5972 3 47.5C3 54.4028 8.37333 60 15 60C16.0427 60 17.0347 59.8194 18 59.5583C12.832 58.1639 9 53.3167 9 47.5Z" fill="#FFFFFD"/>
<path d="M14 61C6.28 61 0 54.72 0 47C0 39.28 6.28 33 14 33C21.72 33 28 39.28 28 47C28 54.72 21.72 61 14 61ZM14 37C8.488 37 4 41.4853 4 47C4 52.5147 8.488 57 14 57C19.512 57 24 52.5147 24 47C24 41.4853 19.512 37 14 37Z" fill="black"/>
<path d="M57.5 75C52.8137 75 49 71.4107 49 67C49 62.5893 52.8137 59 57.5 59C62.1863 59 66 62.5893 66 67C66 71.4107 62.1863 75 57.5 75ZM57.5 63C55.1568 63 53.25 64.7947 53.25 67C53.25 69.2053 55.1568 71 57.5 71C59.8432 71 61.75 69.2053 61.75 67C61.75 64.7947 59.8432 63 57.5 63Z" fill="black"/>
<path d="M55 30C48.9335 30 44 25.0665 44 19C44 12.9335 48.9335 8 55 8C61.0665 8 66 12.9335 66 19C66 25.0665 61.0665 30 55 30ZM55 12.125C51.2078 12.125 48.125 15.2105 48.125 19C48.125 22.7895 51.2078 25.875 55 25.875C58.7922 25.875 61.875 22.7895 61.875 19C61.875 15.2105 58.7922 12.125 55 12.125Z" fill="black"/>
<path d="M23.4291 38.4502L46.3836 23.026L48.6621 26.4656L25.7076 41.8899L23.4291 38.4502Z" fill="black"/>
<path d="M24.8683 54.4615L26.5142 50.6743L52.8157 62.2695L51.1697 66.0566L24.8683 54.4615Z" fill="black"/>
</g>
<defs>
<clipPath id="clip0_246_4518">
<rect width="66" height="75" fill="white"/>
</clipPath>
</defs>
</svg>
